<svg xmlns="http://www.w3.org/2000/svg" viewBox="0 0 1060 240" fill="none">
  <!-- SENTINEL primary lockup -->
  <g>
    <path d="M194.84 81.86 A84 84 0 0 1 81.86 194.84" stroke="#ECEAE3" stroke-width="32"/>
    <path d="M45.16 158.14 A84 84 0 0 1 158.14 45.16" stroke="#ECEAE3" stroke-width="32"/>
    <circle cx="120" cy="120" r="16" fill="#ECEAE3"/>
  </g>
  <g transform="translate(312 72) scale(1.3333)" stroke="#ECEAE3" stroke-width="12" stroke-linejoin="bevel">
    <path d="M39 21 A15 15 0 1 0 24 36 A15 15 0 1 1 9 51"/>
    <g transform="translate(74 0)"><path d="M6 0 V72 M0 6 H44 M0 36 H36 M0 66 H44"/></g>
    <g transform="translate(144 0)"><path d="M6 72 V0 L46 72 V0"/></g>
    <g transform="translate(222 0)"><path d="M0 6 H52 M26 0 V72"/></g>
    <g transform="translate(300 0)"><path d="M6 0 V72"/></g>
    <g transform="translate(338 0)"><path d="M6 72 V0 L46 72 V0"/></g>
    <g transform="translate(416 0)"><path d="M6 0 V72 M0 6 H44 M0 36 H36 M0 66 H44"/></g>
    <g transform="translate(486 0)"><path d="M6 0 V66 H44"/></g>
  </g>
</svg>
